<svg width="96" height="106" viewBox="0 0 96 106" fill="none" xmlns="http://www.w3.org/2000/svg">
<g clip-path="url(#clip0_7116_13413)">
<path fill-rule="evenodd" clip-rule="evenodd" d="M58.4642 78.6502C57.5817 80.0531 52.9204 79.5289 51.0197 79.5289C48.6589 79.5289 31.017 79.6609 30.0101 79.4421C28.7467 79.1668 28.0453 77.9336 28.8108 76.6665C29.6103 75.3428 34.4828 75.8594 36.2968 75.8632C39.1516 75.8708 42.0102 75.8783 44.865 75.8858C46.3848 75.8896 56.1524 75.7501 57.1593 76.0254C58.2643 76.3271 59.2712 77.3642 58.4604 78.6539L58.4642 78.6502ZM28.494 66.3446C28.0264 63.5501 32.5972 64.2553 34.5394 64.2553H51.4572C53.4446 64.2553 58.3133 63.5576 58.7168 65.4923C59.3768 68.63 54.757 67.7135 52.5546 67.7211L35.6368 67.7588C33.6757 67.7626 28.8599 68.5319 28.494 66.3408V66.3446ZM62.869 55.1402C69.9401 55.1402 67.6321 54.0729 72.3461 60.3973C72.6591 60.8197 72.7459 60.9479 72.991 61.2873L73.8659 62.2264C74.8201 61.1252 75.8006 59.7374 76.6529 58.5909C79.5869 54.6462 78.0482 54.9328 84.5914 55.1741C84.0332 56.2603 77.3279 64.4967 76.5925 65.9071C77.8974 67.7437 79.4436 69.7123 80.7786 71.5225L84.976 77.0172L79.5794 77.1115C78.844 76.7758 77.1809 74.2152 76.634 73.4647L74.4844 70.5646C74.3637 70.3949 74.2506 70.2177 74.1111 70.0593L73.6472 69.652C72.5498 70.7607 68.6013 76.938 67.715 77.1153L62.522 77.0549L70.8414 65.9109C69.6874 64.0592 63.4196 56.2565 62.869 55.144V55.1402ZM58.5283 55.1402C57.808 56.6148 53.7312 56.1283 51.2384 56.1283H34.3206C32.4539 56.1396 27.3212 56.8071 28.6638 53.4733C29.3426 51.7876 34.0981 52.4551 36.078 52.4626L52.9958 52.5041C54.9833 52.4928 60.0405 52.0402 58.5283 55.1402ZM59.1995 41.0395C59.6823 40.8132 78.0596 40.7039 80.6919 40.8057C84.6404 40.9565 83.5392 43.8793 82.3437 44.2752C81.4047 44.5882 69.9287 44.4035 67.9375 44.4072C65.5352 44.4148 63.0651 44.4789 60.6741 44.4336C57.6684 44.3771 57.1819 41.9748 59.1995 41.0357V41.0395ZM59.1128 29.3449C60.0104 29.0092 77.822 28.964 80.6919 29.1148C84.0634 29.2883 84.2444 31.7094 82.4342 32.5014C81.548 32.8898 64.2945 32.6786 60.8966 32.6824C56.9519 32.6862 57.7212 29.8691 59.1128 29.3449ZM38.4954 42.9855C37.2584 41.7108 29.5764 29.3109 28.8372 27.4479C26.0427 20.4032 31.7071 13.1247 38.4992 13.2869C46.7243 13.483 50.7331 21.7647 48.1234 27.6478C47.2447 29.6277 39.3288 42.3255 38.4954 42.9855ZM59.6219 17.5069C60.561 17.2806 78.0671 17.2618 81.0841 17.4126C84.267 17.571 83.9163 20.5579 81.9251 20.9915C79.9867 21.4177 70.238 21.0293 67.4963 21.0293C63.627 21.0293 58.4528 21.908 58.0946 19.4906C57.8834 18.0726 58.5434 17.7671 59.6219 17.5031V17.5069ZM16.641 0.653205L16.6108 96.7371C19.3261 97.0237 70.5095 96.7861 75.8496 96.7861C78.7987 96.7861 93.7593 97.1104 95.3319 96.6013C95.7656 89.0399 95.445 72.8085 95.445 64.376L95.4375 17.5748C95.4375 12.6005 96.2257 14.0147 91.8472 9.70797C90.1049 7.99205 83.4939 0.555153 81.9741 0.227054C80.3487 -0.127443 55.3491 0.0498053 51.4609 0.0498053H26.4123C24.6587 0.0498053 22.8937 0.0875178 21.1401 0.106374C20.1898 0.117688 16.6448 -0.23681 16.6448 0.653205H16.641Z" fill="white"/>
<path fill-rule="evenodd" clip-rule="evenodd" d="M0.266731 105.679C5.21838 105.856 10.9658 105.977 15.8646 105.784L70.7966 105.845C73.9041 105.845 78.4749 106.542 78.8445 104.996C79.0707 104.057 78.8294 101.263 78.6748 100.391C57.5935 100.067 36.5084 100.293 15.4271 100.293C12.1688 100.293 12.6402 97.7214 12.742 94.9118C12.8325 92.37 12.7722 89.7716 12.7722 87.2222C12.7722 60.733 12.8891 35.7296 12.5044 9.49304L0.376097 9.54961C-0.155649 11.1071 0.0404559 18.7137 0.0366847 20.8671L0.0479984 93.5956L0.270502 105.679H0.266731Z" fill="white"/>
<path fill-rule="evenodd" clip-rule="evenodd" d="M37.3793 19.2379C35.2184 19.83 33.378 22.0399 34.0757 24.8457C35.4975 30.5856 44.4768 28.4247 42.9495 22.5566C42.4102 20.4862 40.1135 18.4874 37.3831 19.2379H37.3793Z" fill="white"/>
</g>
<defs>
<clipPath id="clip0_7116_13413">
<rect width="95.5559" height="106" fill="white"/>
</clipPath>
</defs>
</svg>
