<svg width="104" height="66" viewBox="0 0 104 66" fill="none" xmlns="http://www.w3.org/2000/svg">
<g clip-path="url(#clip0_7116_13398)">
<path fill-rule="evenodd" clip-rule="evenodd" d="M43.435 51.6102H14.6516C9.01824 51.6102 11.2264 41.3279 12.116 39.4403C13.0463 37.4692 13.5046 36.7241 15.7986 36.0716C21.4749 34.4572 36.431 34.3398 41.8364 35.997C45.9051 37.2434 46.833 40.6121 46.833 45.3537C46.833 47.7583 46.5418 51.6102 43.4304 51.6102H43.435ZM72.627 55.6879C73.9343 53.3623 72.1415 49.8829 75.3409 47.9457C79.457 45.4553 80.9811 49.4382 82.329 49.4133C84.2347 49.3794 89.7507 48.7066 91.0512 47.6928C92.0785 46.8913 92.5165 46.0468 93.0404 44.4641C93.5574 42.8994 93.2436 41.6485 95.0521 41.9014C95.3615 43.168 94.7022 44.8253 94.1558 46.0852C93.5619 47.4557 93.0291 48.3769 91.8031 49.2282C89.4978 50.8267 85.5442 50.3616 82.6858 51.0458C82.3223 52.1611 83.1532 54.0487 82.3742 55.4576C80.9133 58.0971 76.5444 56.1192 77.5627 52.5134C77.9826 51.0254 78.8113 50.8742 79.965 50.0433C79.2177 48.9437 77.8675 48.2957 76.2305 49.3411C73.652 50.9893 75.7451 55.6225 73.5233 57.0923C72.137 58.0113 70.7484 57.2007 69.8295 56.3359C67.2374 53.8907 66.8897 51.8857 64.3316 51.7163C59.9513 51.4228 60.5722 56.625 60.2696 57.6862L59.0549 57.6545C57.6121 53.6333 60.7099 49.6278 64.8283 50.1155C68.9308 50.601 69.8701 56.2118 72.6292 55.6857L72.627 55.6879ZM71.4325 32.3212C71.4325 31.0839 71.5161 29.9753 73.2637 29.9753H94.7202C96.0614 29.9753 95.7656 31.5174 95.7656 32.8428C95.7656 33.4434 95.5827 33.624 94.9799 33.624H72.7399C72.1302 33.624 71.4325 32.9286 71.4325 32.3212ZM64.1058 33.624H52.5929C51.5249 33.624 51.8071 32.8067 51.8071 30.7565C51.8071 30.1559 51.99 29.9753 52.5929 29.9753H64.3677C66.0949 29.9753 66.9394 33.624 64.1058 33.624ZM78.2355 23.9807C73.8688 23.9807 54.5459 24.3555 51.8071 23.721C51.8071 21.6415 51.254 20.3071 53.1302 20.0745L75.8806 20.3342C79.2267 20.3342 79.2832 19.2482 79.2832 22.9398C79.2832 23.5494 78.8497 23.9829 78.2378 23.9829L78.2355 23.9807ZM29.5671 32.0616C26.1261 32.0616 23.3918 31.1471 21.2514 28.878C17.3227 24.7122 17.3949 18.3879 21.2672 14.1499C21.8023 13.5651 23.6041 12.3233 24.3311 11.9891C27.1015 10.7089 30.2151 10.6479 33.0894 11.874C35.5211 12.9103 37.2348 14.7437 38.3818 17.0287C42.087 24.4209 35.8688 32.0638 29.5694 32.0638L29.5671 32.0616ZM51.8071 13.0345C51.8071 10.9844 51.5249 10.167 52.5929 10.167H90.7938C91.8618 10.167 91.5795 10.9844 91.5795 13.0345C91.5795 13.6351 91.3966 13.8157 90.7938 13.8157H52.5929C51.99 13.8157 51.8071 13.6351 51.8071 13.0345ZM-0.00195312 7.29951V58.3883C-0.00195312 62.5744 2.66685 65.6858 6.80101 65.6858H96.5491C100.327 65.6858 103.352 62.6715 103.352 58.9077V7.29951C103.352 3.66434 100.952 0.0020752 97.0729 0.0020752H6.27718C3.02134 0.0020752 -0.00195312 3.05697 -0.00195312 7.29951Z" fill="white"/>
</g>
<defs>
<clipPath id="clip0_7116_13398">
<rect width="103.354" height="65.6842" fill="white"/>
</clipPath>
</defs>
</svg>
