<svg width="104" height="66" viewBox="0 0 104 66" fill="none" xmlns="http://www.w3.org/2000/svg">
<g clip-path="url(#clip0_7116_13429)">
<path fill-rule="evenodd" clip-rule="evenodd" d="M81.6832 49.1086L82.1845 48.9206C82.4039 48.8527 82.5397 48.8083 82.7434 48.7169C83.2109 48.5054 83.2579 48.414 83.8219 48.3383L84.9266 50.5293C84.4748 50.8244 82.8191 51.5164 82.2446 51.6052C82.1297 50.6886 81.7093 50.0462 81.6832 49.1113V49.1086ZM85.1198 47.2989C85.2687 47.1187 85.7283 46.8158 86.4647 45.9697L86.6553 45.7817C87.1959 46.1055 88.3946 46.9829 88.5695 47.3955C88.3058 47.9283 87.2795 48.9415 86.752 49.234C85.9842 48.7927 85.3183 47.5339 85.1224 47.3015L85.1198 47.2989ZM11.0358 47.2049C10.7668 43.7552 11.9028 38.42 13.958 37.0542C18.0058 34.3671 32.8596 34.9233 37.9128 35.3986C42.1799 35.8007 45.0916 36.8088 46.3086 40.2376C47.2905 43.0057 47.4654 49.5865 45.4285 51.1978C44.1698 52.1954 41.2737 51.8219 39.4352 51.8219H19.6327C14.7806 51.8219 11.4719 52.8378 11.0332 47.2049H11.0358ZM89.9223 45.5936C89.2981 45.3612 88.4337 44.805 87.7182 44.4446C87.6947 43.8335 88.2562 43.1781 88.3632 42.3267C89.4052 42.4234 89.9875 42.7968 90.9459 42.9091C90.7605 43.9615 90.1547 44.7031 89.9223 45.5936ZM91.3194 40.9218L88.8933 40.6737L88.8411 38.3286L91.2959 38.0831C91.5387 39.0781 91.4891 39.9242 91.3194 40.9218ZM74.6297 45.403L72.974 43.622L76.993 39.5403C77.8078 38.7882 77.5519 37.8742 77.5519 36.0645C77.5519 34.7118 77.5519 33.359 77.5519 32.0063L80.1424 32.0037V39.018C80.1529 40.9348 79.3041 40.5614 77.0949 43.0658C76.5752 43.6533 75.3713 45.1366 74.6323 45.403H74.6297ZM89.9118 33.4217L90.9329 36.0018C90.1286 36.2943 89.3347 36.5972 88.3554 36.686C88.264 35.7537 87.76 35.3855 87.6947 34.5446L89.9092 33.4217H89.9118ZM52.2757 30.2253C52.6674 29.9929 57.59 30.1182 58.4779 30.1156C59.6765 30.113 60.2458 30.2122 60.6976 31.0871C61.1416 31.9515 60.9666 32.8916 60.3816 33.3982C59.6191 34.0589 55.7855 33.7821 54.4798 33.7821C53.6154 33.7821 52.1504 34.0981 51.9832 33.1188C51.8892 32.5704 51.85 30.4812 52.2783 30.2253H52.2757ZM85.0963 31.8131C85.3261 31.1419 86.2741 30.2018 86.6188 29.7709C87.2847 29.9615 88.2353 31.027 88.5643 31.5911C88.3188 32.0455 87.1332 33.0431 86.53 33.252C86.3263 32.7036 85.6369 32.0168 85.0963 31.8131ZM81.6753 29.9981C81.7093 29.0919 82.0827 28.285 82.2629 27.4154C83.3519 27.6374 84.0073 28.1779 84.9605 28.4495L83.8324 30.6823C82.9366 30.5596 82.5919 30.0895 81.6727 29.9981H81.6753ZM80.0092 29.4863C78.5155 29.7187 77.8339 29.2486 75.3739 30.1182C74.0055 30.6014 72.9296 31.3456 72.0861 32.1604C69.0203 35.1191 67.8007 39.462 69.7985 43.7917C71.2034 46.8393 74.1126 49.0094 77.4761 49.4351C78.2152 49.5291 79.5653 49.4769 79.8551 49.563C80.2625 49.6858 80.2887 51.7122 80.1816 51.9812C78.8132 52.433 75.6847 51.7671 74.4547 51.3205C72.7807 50.7147 71.3445 49.7067 70.3208 48.7874L69.5191 47.9753C67.5396 45.6433 66.2104 42.7733 66.26 39.4985C66.3227 35.3255 68.1611 31.8862 71.2452 29.5124C71.6056 29.2356 71.8432 29.0632 72.2559 28.8073C72.9766 28.3581 73.6242 28.0395 74.4912 27.7131C75.8126 27.2169 78.7531 26.585 80.2442 27.0602L80.0092 29.4889V29.4863ZM52.0302 23.8508C51.9153 23.1901 51.8265 21.3542 52.0981 20.8346C52.5238 20.0198 53.7094 20.1974 54.767 20.213C56.9554 20.247 59.1464 20.2783 61.3374 20.3097C64.3641 20.3541 68.1768 20.482 71.1434 20.4533C71.7701 20.4481 73.6295 20.1451 74.0029 20.4481C74.379 20.7536 74.4573 22.8715 74.2458 23.4564C73.9402 24.2947 72.6215 24.1198 71.6187 24.138C68.0436 24.2059 54.7722 24.4566 52.0355 23.8482L52.0302 23.8508ZM27.6968 11.1618C33.9695 10.4149 38.7902 15.0424 39.5266 20.3645C40.3519 26.3316 35.586 31.7008 30.397 32.1708C25.8453 32.5834 21.7688 30.5308 19.7737 26.8853C19.1365 25.7206 18.6612 24.441 18.4863 22.9263C18.0998 19.5628 19.2828 16.8808 20.8104 14.87C21.4999 13.9612 22.6437 13.1256 23.7326 12.4597C24.8242 11.7937 26.1822 11.3394 27.6942 11.1592L27.6968 11.1618ZM52.0851 13.7262C51.9728 13.183 51.9049 11.6344 51.9702 11.0234C52.0772 9.97618 53.0356 10.2452 54.0045 10.2452H86.5613C87.4753 10.2452 91.4082 10.0206 91.745 10.5089C91.9879 10.8588 91.9017 12.5981 91.873 13.1282C91.8129 14.2067 90.8911 13.9116 89.8909 13.9116H62.758C61.1781 13.9116 52.9233 14.0892 52.0825 13.7288L52.0851 13.7262ZM103.656 59.5805C103.773 57.9562 103.682 56.0081 103.682 54.3446V11.8851C103.682 10.2504 103.792 8.18996 103.64 6.60742C103.345 3.49197 101.637 1.29314 99.2817 0.400024C97.6756 -0.208442 91.2175 0.0579247 89.0344 0.0579247H14.8746C12.6993 0.0579247 6.18376 -0.192774 4.59339 0.368686C2.25354 1.1939 0.428141 3.43191 0.0938761 6.43507C-0.0758676 7.96537 0.0364243 10.0911 0.0364243 11.6971V48.824C0.0364243 50.9419 -0.0628104 57.9092 0.0729845 59.463C0.344574 62.5367 2.10208 64.7303 4.51244 65.5633C6.37962 66.2084 12.318 65.9368 14.6814 65.9368H88.8411C91.4003 65.9368 96.9392 66.224 99.031 65.5816C101.397 64.853 103.436 62.5863 103.653 59.5831L103.656 59.5805Z" fill="white"/>
</g>
<defs>
<clipPath id="clip0_7116_13429">
<rect width="103.719" height="66" fill="white"/>
</clipPath>
</defs>
</svg>
